<svg xmlns="http://www.w3.org/2000/svg" viewBox="0 0 114.99294 106.18564"><path fill="#fff" d="M54.296896 52.43768c0 14.99364-12.154814 27.14845-27.148454 27.14845C12.15476 79.58613 0 67.43132 0 52.43768c0-14.99347 12.15476-27.14826 27.148442-27.14826 14.99364 0 27.148454 12.15479 27.148454 27.14826zm43.73651-37.91567c0 8.02031-6.50173 14.52202-14.52202 14.52202-8.02034 0-14.52206-6.50171-14.52206-14.52202C68.989326 6.5017 75.491046 0 83.511386 0c8.02029 0 14.52202 6.5017 14.52202 14.52201zm16.95954 70.55379c0 11.65872-9.45115 21.10984-21.10975 21.10984-11.65859 0-21.1097-9.45112-21.1097-21.10984 0-11.65837 9.45111-21.10951 21.1097-21.10951 11.6586 0 21.10975 9.45114 21.10975 21.10951zm-49.79766-68.27121L47.821003 28.5713c3.348303 2.90939 6.108803 6.49993 7.997683 10.57165l15.71959-10.61762c-3.40907-2.91665-5.76028-7.04426-6.34299-11.72074zm29.55466 12.31828c-3.10687 2.39995-6.98291 3.86094-11.21514 3.86094-.5592 0-1.10809-.0431-1.6547-.092l3.63113 28.54346c2.61848-.92728 5.42938-1.47083 8.3654-1.47083 1.66617 0 3.29681.14958 4.87215.45963l-3.99884-31.30128zm-37.18464 31.80687c-1.21325 4.3462-3.3508 8.30021-6.15913 11.67479l17.69602 8.64118c.6944-4.54393 2.58863-8.69135 5.37775-12.08846l-16.91464-8.22751z"/></svg>